<mxfile host="app.diagrams.net" modified="2023-09-10T22:47:28.710Z" agent="Mozilla/5.0 (X11; Linux x86_64) AppleWebKit/537.36 (KHTML, like Gecko) Chrome/116.0.0.0 Safari/537.36" etag="kJNmc0f2KIzCS25hJpTL" version="21.7.4" type="github">
  <diagram name="PÃ¡gina-1" id="7OvJ7o56CHZc-mcTvCt1">
    <mxGraphModel dx="1509" dy="748" grid="1" gridSize="10" guides="1" tooltips="1" connect="1" arrows="1" fold="1" page="1" pageScale="1" pageWidth="827" pageHeight="1169" math="0" shadow="0">
      <root>
        <mxCell id="0" />
        <mxCell id="1" parent="0" />
        <mxCell id="zaaU4aKtAHIBDLXBnY_3-3" value="" style="edgeStyle=orthogonalEdgeStyle;rounded=0;orthogonalLoop=1;jettySize=auto;html=1;" parent="1" source="zaaU4aKtAHIBDLXBnY_3-1" target="zaaU4aKtAHIBDLXBnY_3-2" edge="1">
          <mxGeometry relative="1" as="geometry" />
        </mxCell>
        <mxCell id="zaaU4aKtAHIBDLXBnY_3-1" value="start&lt;br&gt;" style="ellipse;whiteSpace=wrap;html=1;" parent="1" vertex="1">
          <mxGeometry x="420" y="80" width="120" height="80" as="geometry" />
        </mxCell>
        <mxCell id="zaaU4aKtAHIBDLXBnY_3-5" value="" style="edgeStyle=orthogonalEdgeStyle;rounded=0;orthogonalLoop=1;jettySize=auto;html=1;" parent="1" source="zaaU4aKtAHIBDLXBnY_3-2" target="zaaU4aKtAHIBDLXBnY_3-4" edge="1">
          <mxGeometry relative="1" as="geometry" />
        </mxCell>
        <mxCell id="iCMc9bXATborlr8O-4rv-16" value="No" style="edgeLabel;html=1;align=center;verticalAlign=middle;resizable=0;points=[];" vertex="1" connectable="0" parent="zaaU4aKtAHIBDLXBnY_3-5">
          <mxGeometry x="-0.2789" y="-2" relative="1" as="geometry">
            <mxPoint x="-8" as="offset" />
          </mxGeometry>
        </mxCell>
        <mxCell id="zaaU4aKtAHIBDLXBnY_3-22" value="" style="edgeStyle=orthogonalEdgeStyle;rounded=0;orthogonalLoop=1;jettySize=auto;html=1;" parent="1" source="zaaU4aKtAHIBDLXBnY_3-2" target="zaaU4aKtAHIBDLXBnY_3-21" edge="1">
          <mxGeometry relative="1" as="geometry" />
        </mxCell>
        <mxCell id="iCMc9bXATborlr8O-4rv-15" value="Yes" style="edgeLabel;html=1;align=center;verticalAlign=middle;resizable=0;points=[];" vertex="1" connectable="0" parent="zaaU4aKtAHIBDLXBnY_3-22">
          <mxGeometry x="-0.2727" y="2" relative="1" as="geometry">
            <mxPoint x="56" y="-8" as="offset" />
          </mxGeometry>
        </mxCell>
        <mxCell id="zaaU4aKtAHIBDLXBnY_3-2" value="Low battery?&lt;br&gt;" style="rhombus;whiteSpace=wrap;html=1;" parent="1" vertex="1">
          <mxGeometry x="420" y="240" width="120" height="80" as="geometry" />
        </mxCell>
        <mxCell id="zaaU4aKtAHIBDLXBnY_3-7" value="" style="edgeStyle=orthogonalEdgeStyle;rounded=0;orthogonalLoop=1;jettySize=auto;html=1;" parent="1" source="zaaU4aKtAHIBDLXBnY_3-4" target="zaaU4aKtAHIBDLXBnY_3-6" edge="1">
          <mxGeometry relative="1" as="geometry" />
        </mxCell>
        <mxCell id="iCMc9bXATborlr8O-4rv-17" value="No" style="edgeLabel;html=1;align=center;verticalAlign=middle;resizable=0;points=[];" vertex="1" connectable="0" parent="zaaU4aKtAHIBDLXBnY_3-7">
          <mxGeometry x="-0.0421" relative="1" as="geometry">
            <mxPoint x="-10" y="-8" as="offset" />
          </mxGeometry>
        </mxCell>
        <mxCell id="zaaU4aKtAHIBDLXBnY_3-24" value="" style="edgeStyle=orthogonalEdgeStyle;rounded=0;orthogonalLoop=1;jettySize=auto;html=1;" parent="1" source="zaaU4aKtAHIBDLXBnY_3-4" target="zaaU4aKtAHIBDLXBnY_3-23" edge="1">
          <mxGeometry relative="1" as="geometry" />
        </mxCell>
        <mxCell id="zaaU4aKtAHIBDLXBnY_3-4" value="Low water&lt;br&gt;reservoir?" style="rhombus;html=1;whiteSpace=wrap;" parent="1" vertex="1">
          <mxGeometry x="420" y="400" width="120" height="80" as="geometry" />
        </mxCell>
        <mxCell id="zaaU4aKtAHIBDLXBnY_3-9" value="" style="edgeStyle=orthogonalEdgeStyle;rounded=0;orthogonalLoop=1;jettySize=auto;html=1;" parent="1" source="zaaU4aKtAHIBDLXBnY_3-6" target="zaaU4aKtAHIBDLXBnY_3-8" edge="1">
          <mxGeometry relative="1" as="geometry" />
        </mxCell>
        <mxCell id="iCMc9bXATborlr8O-4rv-18" value="Yes&lt;br&gt;" style="edgeLabel;html=1;align=center;verticalAlign=middle;resizable=0;points=[];" vertex="1" connectable="0" parent="zaaU4aKtAHIBDLXBnY_3-9">
          <mxGeometry x="-0.2526" y="2" relative="1" as="geometry">
            <mxPoint x="-12" as="offset" />
          </mxGeometry>
        </mxCell>
        <mxCell id="zaaU4aKtAHIBDLXBnY_3-18" style="edgeStyle=orthogonalEdgeStyle;rounded=0;orthogonalLoop=1;jettySize=auto;html=1;entryX=0.5;entryY=1;entryDx=0;entryDy=0;" parent="1" source="zaaU4aKtAHIBDLXBnY_3-6" target="zaaU4aKtAHIBDLXBnY_3-17" edge="1">
          <mxGeometry relative="1" as="geometry" />
        </mxCell>
        <mxCell id="iCMc9bXATborlr8O-4rv-29" value="No" style="edgeLabel;html=1;align=center;verticalAlign=middle;resizable=0;points=[];" vertex="1" connectable="0" parent="zaaU4aKtAHIBDLXBnY_3-18">
          <mxGeometry x="-0.5257" relative="1" as="geometry">
            <mxPoint x="3" y="-15" as="offset" />
          </mxGeometry>
        </mxCell>
        <mxCell id="zaaU4aKtAHIBDLXBnY_3-6" value="Low humidity?" style="rhombus;html=1;whiteSpace=wrap;" parent="1" vertex="1">
          <mxGeometry x="420" y="560" width="120" height="80" as="geometry" />
        </mxCell>
        <mxCell id="zaaU4aKtAHIBDLXBnY_3-11" value="" style="edgeStyle=orthogonalEdgeStyle;rounded=0;orthogonalLoop=1;jettySize=auto;html=1;" parent="1" source="zaaU4aKtAHIBDLXBnY_3-8" target="zaaU4aKtAHIBDLXBnY_3-10" edge="1">
          <mxGeometry relative="1" as="geometry" />
        </mxCell>
        <mxCell id="zaaU4aKtAHIBDLXBnY_3-8" value="Start water pump" style="whiteSpace=wrap;html=1;" parent="1" vertex="1">
          <mxGeometry x="420" y="720" width="120" height="40" as="geometry" />
        </mxCell>
        <mxCell id="zaaU4aKtAHIBDLXBnY_3-13" value="" style="edgeStyle=orthogonalEdgeStyle;rounded=0;orthogonalLoop=1;jettySize=auto;html=1;" parent="1" source="zaaU4aKtAHIBDLXBnY_3-10" target="zaaU4aKtAHIBDLXBnY_3-12" edge="1">
          <mxGeometry relative="1" as="geometry" />
        </mxCell>
        <mxCell id="zaaU4aKtAHIBDLXBnY_3-10" value="Light on Blue LED" style="whiteSpace=wrap;html=1;" parent="1" vertex="1">
          <mxGeometry x="420" y="840" width="120" height="40" as="geometry" />
        </mxCell>
        <mxCell id="zaaU4aKtAHIBDLXBnY_3-15" value="" style="edgeStyle=orthogonalEdgeStyle;rounded=0;orthogonalLoop=1;jettySize=auto;html=1;" parent="1" source="zaaU4aKtAHIBDLXBnY_3-12" target="zaaU4aKtAHIBDLXBnY_3-14" edge="1">
          <mxGeometry relative="1" as="geometry" />
        </mxCell>
        <mxCell id="zaaU4aKtAHIBDLXBnY_3-12" value="Wait 1 minute" style="whiteSpace=wrap;html=1;" parent="1" vertex="1">
          <mxGeometry x="420" y="960" width="120" height="40" as="geometry" />
        </mxCell>
        <mxCell id="zaaU4aKtAHIBDLXBnY_3-20" style="edgeStyle=orthogonalEdgeStyle;rounded=0;orthogonalLoop=1;jettySize=auto;html=1;entryX=1;entryY=0.5;entryDx=0;entryDy=0;" parent="1" source="zaaU4aKtAHIBDLXBnY_3-14" target="zaaU4aKtAHIBDLXBnY_3-6" edge="1">
          <mxGeometry relative="1" as="geometry">
            <mxPoint x="600" y="600" as="targetPoint" />
            <Array as="points">
              <mxPoint x="600" y="1100" />
              <mxPoint x="600" y="600" />
            </Array>
          </mxGeometry>
        </mxCell>
        <mxCell id="zaaU4aKtAHIBDLXBnY_3-14" value="Stop water pump" style="whiteSpace=wrap;html=1;" parent="1" vertex="1">
          <mxGeometry x="420" y="1080" width="120" height="40" as="geometry" />
        </mxCell>
        <mxCell id="zaaU4aKtAHIBDLXBnY_3-19" style="edgeStyle=orthogonalEdgeStyle;rounded=0;orthogonalLoop=1;jettySize=auto;html=1;entryX=0;entryY=0.5;entryDx=0;entryDy=0;" parent="1" source="zaaU4aKtAHIBDLXBnY_3-17" target="zaaU4aKtAHIBDLXBnY_3-2" edge="1">
          <mxGeometry relative="1" as="geometry">
            <Array as="points">
              <mxPoint x="320" y="280" />
            </Array>
          </mxGeometry>
        </mxCell>
        <mxCell id="zaaU4aKtAHIBDLXBnY_3-17" value="Wait 4 hours (configurable)" style="whiteSpace=wrap;html=1;" parent="1" vertex="1">
          <mxGeometry x="260" y="440" width="120" height="40" as="geometry" />
        </mxCell>
        <mxCell id="zaaU4aKtAHIBDLXBnY_3-38" value="" style="edgeStyle=orthogonalEdgeStyle;rounded=0;orthogonalLoop=1;jettySize=auto;html=1;dashed=1;" parent="1" source="zaaU4aKtAHIBDLXBnY_3-21" target="zaaU4aKtAHIBDLXBnY_3-37" edge="1">
          <mxGeometry relative="1" as="geometry" />
        </mxCell>
        <mxCell id="iCMc9bXATborlr8O-4rv-10" style="edgeStyle=orthogonalEdgeStyle;rounded=0;orthogonalLoop=1;jettySize=auto;html=1;dashed=1;" edge="1" parent="1" source="zaaU4aKtAHIBDLXBnY_3-21">
          <mxGeometry relative="1" as="geometry">
            <mxPoint x="478" y="360" as="targetPoint" />
            <Array as="points">
              <mxPoint x="940" y="360" />
            </Array>
          </mxGeometry>
        </mxCell>
        <mxCell id="iCMc9bXATborlr8O-4rv-23" value="No&lt;br&gt;" style="edgeLabel;html=1;align=center;verticalAlign=middle;resizable=0;points=[];" vertex="1" connectable="0" parent="iCMc9bXATborlr8O-4rv-10">
          <mxGeometry x="-0.9269" y="5" relative="1" as="geometry">
            <mxPoint x="-65" y="12" as="offset" />
          </mxGeometry>
        </mxCell>
        <mxCell id="iCMc9bXATborlr8O-4rv-11" style="edgeStyle=orthogonalEdgeStyle;rounded=0;orthogonalLoop=1;jettySize=auto;html=1;entryX=0.5;entryY=0;entryDx=0;entryDy=0;" edge="1" parent="1" source="zaaU4aKtAHIBDLXBnY_3-21" target="iCMc9bXATborlr8O-4rv-12">
          <mxGeometry relative="1" as="geometry">
            <mxPoint x="1120" y="420" as="targetPoint" />
            <Array as="points">
              <mxPoint x="1100" y="280" />
            </Array>
          </mxGeometry>
        </mxCell>
        <mxCell id="iCMc9bXATborlr8O-4rv-24" value="Yes" style="edgeLabel;html=1;align=center;verticalAlign=middle;resizable=0;points=[];" vertex="1" connectable="0" parent="iCMc9bXATborlr8O-4rv-11">
          <mxGeometry x="-0.4548" y="-1" relative="1" as="geometry">
            <mxPoint y="-11" as="offset" />
          </mxGeometry>
        </mxCell>
        <mxCell id="zaaU4aKtAHIBDLXBnY_3-21" value="Critical low?" style="rhombus;whiteSpace=wrap;html=1;" parent="1" vertex="1">
          <mxGeometry x="880" y="240" width="120" height="80" as="geometry" />
        </mxCell>
        <mxCell id="zaaU4aKtAHIBDLXBnY_3-26" value="" style="edgeStyle=orthogonalEdgeStyle;rounded=0;orthogonalLoop=1;jettySize=auto;html=1;" parent="1" source="zaaU4aKtAHIBDLXBnY_3-23" target="zaaU4aKtAHIBDLXBnY_3-25" edge="1">
          <mxGeometry relative="1" as="geometry">
            <Array as="points">
              <mxPoint x="680" y="500" />
              <mxPoint x="680" y="500" />
            </Array>
          </mxGeometry>
        </mxCell>
        <mxCell id="zaaU4aKtAHIBDLXBnY_3-23" value="Turn on Red LED" style="whiteSpace=wrap;html=1;" parent="1" vertex="1">
          <mxGeometry x="620" y="420" width="120" height="40" as="geometry" />
        </mxCell>
        <mxCell id="zaaU4aKtAHIBDLXBnY_3-31" style="edgeStyle=orthogonalEdgeStyle;rounded=0;orthogonalLoop=1;jettySize=auto;html=1;entryX=0.5;entryY=1;entryDx=0;entryDy=0;" parent="1" source="zaaU4aKtAHIBDLXBnY_3-25" target="zaaU4aKtAHIBDLXBnY_3-30" edge="1">
          <mxGeometry relative="1" as="geometry">
            <Array as="points">
              <mxPoint x="800" y="600" />
            </Array>
          </mxGeometry>
        </mxCell>
        <mxCell id="iCMc9bXATborlr8O-4rv-21" value="No" style="edgeLabel;html=1;align=center;verticalAlign=middle;resizable=0;points=[];" vertex="1" connectable="0" parent="zaaU4aKtAHIBDLXBnY_3-31">
          <mxGeometry x="-0.6535" y="3" relative="1" as="geometry">
            <mxPoint y="-12" as="offset" />
          </mxGeometry>
        </mxCell>
        <mxCell id="zaaU4aKtAHIBDLXBnY_3-34" value="" style="edgeStyle=orthogonalEdgeStyle;rounded=0;orthogonalLoop=1;jettySize=auto;html=1;" parent="1" source="zaaU4aKtAHIBDLXBnY_3-25" target="zaaU4aKtAHIBDLXBnY_3-33" edge="1">
          <mxGeometry relative="1" as="geometry" />
        </mxCell>
        <mxCell id="iCMc9bXATborlr8O-4rv-19" value="Yes" style="edgeLabel;html=1;align=center;verticalAlign=middle;resizable=0;points=[];" vertex="1" connectable="0" parent="zaaU4aKtAHIBDLXBnY_3-34">
          <mxGeometry x="-0.3842" relative="1" as="geometry">
            <mxPoint x="-10" y="6" as="offset" />
          </mxGeometry>
        </mxCell>
        <mxCell id="zaaU4aKtAHIBDLXBnY_3-25" value="Reservoir full?" style="rhombus;html=1;whiteSpace=wrap;" parent="1" vertex="1">
          <mxGeometry x="620" y="560" width="120" height="80" as="geometry" />
        </mxCell>
        <mxCell id="zaaU4aKtAHIBDLXBnY_3-32" value="" style="edgeStyle=orthogonalEdgeStyle;rounded=0;orthogonalLoop=1;jettySize=auto;html=1;" parent="1" source="zaaU4aKtAHIBDLXBnY_3-30" edge="1">
          <mxGeometry relative="1" as="geometry">
            <mxPoint x="680" y="500" as="targetPoint" />
            <Array as="points">
              <mxPoint x="800" y="500" />
              <mxPoint x="680" y="500" />
            </Array>
          </mxGeometry>
        </mxCell>
        <mxCell id="zaaU4aKtAHIBDLXBnY_3-30" value="Wait 30 minutes" style="whiteSpace=wrap;html=1;" parent="1" vertex="1">
          <mxGeometry x="740" y="520" width="120" height="40" as="geometry" />
        </mxCell>
        <mxCell id="iCMc9bXATborlr8O-4rv-20" style="edgeStyle=orthogonalEdgeStyle;rounded=0;orthogonalLoop=1;jettySize=auto;html=1;" edge="1" parent="1" source="zaaU4aKtAHIBDLXBnY_3-33">
          <mxGeometry relative="1" as="geometry">
            <mxPoint x="600" y="740" as="targetPoint" />
          </mxGeometry>
        </mxCell>
        <mxCell id="zaaU4aKtAHIBDLXBnY_3-33" value="Turn off Red LED" style="whiteSpace=wrap;html=1;" parent="1" vertex="1">
          <mxGeometry x="620" y="720" width="120" height="40" as="geometry" />
        </mxCell>
        <mxCell id="iCMc9bXATborlr8O-4rv-2" value="" style="edgeStyle=orthogonalEdgeStyle;rounded=0;orthogonalLoop=1;jettySize=auto;html=1;" edge="1" parent="1" source="zaaU4aKtAHIBDLXBnY_3-37" target="iCMc9bXATborlr8O-4rv-1">
          <mxGeometry relative="1" as="geometry" />
        </mxCell>
        <mxCell id="zaaU4aKtAHIBDLXBnY_3-37" value="Turn on Yellow LED" style="whiteSpace=wrap;html=1;" parent="1" vertex="1">
          <mxGeometry x="880" y="420" width="120" height="40" as="geometry" />
        </mxCell>
        <mxCell id="iCMc9bXATborlr8O-4rv-4" value="" style="edgeStyle=orthogonalEdgeStyle;rounded=0;orthogonalLoop=1;jettySize=auto;html=1;" edge="1" parent="1" source="iCMc9bXATborlr8O-4rv-1">
          <mxGeometry relative="1" as="geometry">
            <mxPoint x="940" y="660" as="targetPoint" />
          </mxGeometry>
        </mxCell>
        <mxCell id="iCMc9bXATborlr8O-4rv-1" value="Activate solar panel" style="whiteSpace=wrap;html=1;" vertex="1" parent="1">
          <mxGeometry x="880" y="540" width="120" height="40" as="geometry" />
        </mxCell>
        <mxCell id="iCMc9bXATborlr8O-4rv-7" value="" style="edgeStyle=orthogonalEdgeStyle;rounded=0;orthogonalLoop=1;jettySize=auto;html=1;" edge="1" parent="1" source="iCMc9bXATborlr8O-4rv-5" target="iCMc9bXATborlr8O-4rv-6">
          <mxGeometry relative="1" as="geometry" />
        </mxCell>
        <mxCell id="iCMc9bXATborlr8O-4rv-22" value="Yes" style="edgeLabel;html=1;align=center;verticalAlign=middle;resizable=0;points=[];" vertex="1" connectable="0" parent="iCMc9bXATborlr8O-4rv-7">
          <mxGeometry x="-0.3123" y="2" relative="1" as="geometry">
            <mxPoint x="-12" y="9" as="offset" />
          </mxGeometry>
        </mxCell>
        <mxCell id="iCMc9bXATborlr8O-4rv-27" style="edgeStyle=orthogonalEdgeStyle;rounded=0;orthogonalLoop=1;jettySize=auto;html=1;entryX=0.5;entryY=0;entryDx=0;entryDy=0;" edge="1" parent="1" source="iCMc9bXATborlr8O-4rv-5" target="zaaU4aKtAHIBDLXBnY_3-21">
          <mxGeometry relative="1" as="geometry">
            <mxPoint x="1240" y="200" as="targetPoint" />
            <Array as="points">
              <mxPoint x="1200" y="700" />
              <mxPoint x="1200" y="200" />
              <mxPoint x="940" y="200" />
            </Array>
          </mxGeometry>
        </mxCell>
        <mxCell id="iCMc9bXATborlr8O-4rv-28" value="No" style="edgeLabel;html=1;align=center;verticalAlign=middle;resizable=0;points=[];" vertex="1" connectable="0" parent="iCMc9bXATborlr8O-4rv-27">
          <mxGeometry x="-0.7964" y="4" relative="1" as="geometry">
            <mxPoint x="-79" y="-6" as="offset" />
          </mxGeometry>
        </mxCell>
        <mxCell id="iCMc9bXATborlr8O-4rv-5" value="Battery full?" style="rhombus;whiteSpace=wrap;html=1;" vertex="1" parent="1">
          <mxGeometry x="880" y="660" width="120" height="80" as="geometry" />
        </mxCell>
        <mxCell id="iCMc9bXATborlr8O-4rv-9" value="" style="edgeStyle=orthogonalEdgeStyle;rounded=0;orthogonalLoop=1;jettySize=auto;html=1;" edge="1" parent="1" source="iCMc9bXATborlr8O-4rv-6" target="iCMc9bXATborlr8O-4rv-8">
          <mxGeometry relative="1" as="geometry" />
        </mxCell>
        <mxCell id="iCMc9bXATborlr8O-4rv-6" value="Deactivate solar panel" style="whiteSpace=wrap;html=1;" vertex="1" parent="1">
          <mxGeometry x="880" y="820" width="120" height="40" as="geometry" />
        </mxCell>
        <mxCell id="iCMc9bXATborlr8O-4rv-8" value="Turn off Yellow LED" style="whiteSpace=wrap;html=1;" vertex="1" parent="1">
          <mxGeometry x="880" y="920" width="120" height="40" as="geometry" />
        </mxCell>
        <mxCell id="iCMc9bXATborlr8O-4rv-13" style="edgeStyle=orthogonalEdgeStyle;rounded=0;orthogonalLoop=1;jettySize=auto;html=1;entryX=1;entryY=0.5;entryDx=0;entryDy=0;" edge="1" parent="1" source="iCMc9bXATborlr8O-4rv-12" target="iCMc9bXATborlr8O-4rv-1">
          <mxGeometry relative="1" as="geometry">
            <Array as="points">
              <mxPoint x="1100" y="560" />
            </Array>
          </mxGeometry>
        </mxCell>
        <mxCell id="iCMc9bXATborlr8O-4rv-12" value="Turn on Red LED" style="whiteSpace=wrap;html=1;" vertex="1" parent="1">
          <mxGeometry x="1040" y="420" width="120" height="40" as="geometry" />
        </mxCell>
      </root>
    </mxGraphModel>
  </diagram>
</mxfile>
